<?xml version="1.0" standalone="no"?>
<!DOCTYPE svg PUBLIC "-//W3C//DTD SVG 20010904//EN"
 "http://www.w3.org/TR/2001/REC-SVG-20010904/DTD/svg10.dtd">
<svg version="1.0" xmlns="http://www.w3.org/2000/svg"
 width="64.000000pt" height="64.000000pt" viewBox="0 0 64.000000 64.000000"
 preserveAspectRatio="xMidYMid meet">

<g transform="translate(0.000000,64.000000) scale(0.100000,-0.100000)"
fill="#000000" stroke="none">
<path d="M587 553 c-4 -3 -7 -12 -7 -20 0 -14 -30 -53 -42 -53 -3 0 -8 10 -10
23 -3 22 -3 22 -233 25 -207 2 -231 1 -242 -15 -9 -12 -13 -64 -13 -173 0
-144 -1 -156 -20 -168 -30 -19 -28 -80 4 -92 26 -10 451 -13 509 -3 36 5 37 6
37 50 0 36 -4 46 -20 50 -19 5 -20 14 -20 136 0 128 1 131 27 159 15 15 34 28
44 28 22 0 43 26 35 45 -5 15 -37 21 -49 8z m33 -23 c0 -5 -4 -10 -10 -10 -5
0 -10 5 -10 10 0 6 5 10 10 10 6 0 10 -4 10 -10z m-110 -55 c0 -19 -4 -35 -10
-35 -5 0 -10 11 -10 25 l0 25 -200 0 -200 0 0 -145 0 -145 198 2 197 3 3 108
c4 148 22 138 22 -13 l0 -120 -225 0 -225 0 0 165 0 165 225 0 225 0 0 -35z
m-40 -32 c0 -18 -13 -40 -37 -65 l-36 -37 -45 32 -44 32 -43 -48 c-45 -48 -68
-54 -78 -16 -5 20 -41 26 -52 9 -14 -22 6 -50 33 -49 15 1 34 -1 43 -5 11 -5
29 7 58 39 l42 46 42 -31 c40 -29 41 -29 61 -12 58 50 56 52 56 -37 l0 -81
-179 0 c-134 0 -180 3 -183 13 -3 9 -2 224 1 235 1 1 82 2 181 2 l180 0 0 -27z
m-300 -113 c0 -5 -4 -10 -10 -10 -5 0 -10 5 -10 10 0 6 5 10 10 10 6 0 10 -4
10 -10z m50 -190 c9 -17 21 -20 71 -20 52 0 62 3 66 20 5 18 14 20 99 20 52 0
95 -3 95 -7 1 -5 2 -19 3 -33 l1 -25 -265 0 -265 0 -3 33 -3 32 95 0 c85 0 96
-2 106 -20z m120 10 c0 -5 -22 -10 -49 -10 -28 0 -53 5 -56 10 -4 6 15 10 49
10 31 0 56 -4 56 -10z"/>
<path d="M300 295 c0 -25 5 -45 10 -45 6 0 10 20 10 45 0 25 -4 45 -10 45 -5
0 -10 -20 -10 -45z"/>
<path d="M392 270 c0 -14 2 -19 5 -12 2 6 2 18 0 25 -3 6 -5 1 -5 -13z"/>
<path d="M150 260 c0 -5 5 -10 10 -10 6 0 10 5 10 10 0 6 -4 10 -10 10 -5 0
-10 -4 -10 -10z"/>
</g>
</svg>
