<?xml version="1.0" standalone="no"?>
<!DOCTYPE svg PUBLIC "-//W3C//DTD SVG 20010904//EN"
 "http://www.w3.org/TR/2001/REC-SVG-20010904/DTD/svg10.dtd">
<svg version="1.0" xmlns="http://www.w3.org/2000/svg"
 width="64.000000pt" height="64.000000pt" viewBox="0 0 64.000000 64.000000"
 preserveAspectRatio="xMidYMid meet">

<g transform="translate(0.000000,64.000000) scale(0.100000,-0.100000)"
fill="#000000" stroke="none">
<path d="M222 621 c-123 -46 -202 -156 -202 -281 0 -36 7 -87 16 -113 21 -62
87 -135 148 -163 28 -13 51 -22 52 -21 1 1 20 57 42 125 27 81 48 128 62 140
19 16 21 22 11 40 -7 12 -21 22 -34 22 -12 0 -43 21 -74 52 -29 28 -56 49 -60
45 -4 -4 16 -31 44 -60 68 -68 73 -99 39 -205 -14 -43 -30 -91 -35 -106 l-11
-27 -39 20 c-113 58 -170 212 -125 343 51 152 239 227 387 155 65 -32 100 -70
135 -146 21 -45 24 -64 20 -125 -6 -86 -37 -148 -103 -201 -45 -37 -65 -44
-65 -21 0 8 -4 18 -10 21 -12 7 -90 -53 -90 -70 0 -7 18 -17 41 -24 23 -7 47
-15 55 -18 10 -4 14 3 14 25 0 24 6 32 30 42 46 19 116 103 136 162 22 67 15
177 -14 235 -72 139 -231 205 -370 154z m108 -286 c0 -8 -4 -15 -10 -15 -5 0
-10 7 -10 15 0 8 5 15 10 15 6 0 10 -7 10 -15z m80 -270 c0 -25 -4 -30 -20
-26 -22 5 -24 9 -10 26 16 19 30 19 30 0z"/>
<path d="M310 565 c0 -8 5 -15 10 -15 6 0 10 7 10 15 0 8 -4 15 -10 15 -5 0
-10 -7 -10 -15z"/>
<path d="M70 330 c0 -5 6 -10 14 -10 8 0 18 5 21 10 3 6 -3 10 -14 10 -12 0
-21 -4 -21 -10z"/>
<path d="M535 330 c3 -5 13 -10 21 -10 8 0 14 5 14 10 0 6 -9 10 -21 10 -11 0
-17 -4 -14 -10z"/>
</g>
</svg>
