<?xml version="1.0" standalone="no"?>
<!DOCTYPE svg PUBLIC "-//W3C//DTD SVG 20010904//EN"
 "http://www.w3.org/TR/2001/REC-SVG-20010904/DTD/svg10.dtd">
<svg version="1.0" xmlns="http://www.w3.org/2000/svg"
 width="60.000000pt" height="64.000000pt" viewBox="0 0 60.000000 64.000000"
 preserveAspectRatio="xMidYMid meet">

<g transform="translate(0.000000,64.000000) scale(0.100000,-0.100000)"
fill="#000000" stroke="none">
<path d="M136 627 c-13 -10 -17 -21 -13 -36 3 -12 -1 -38 -9 -56 -17 -42 -18
-157 0 -206 7 -20 25 -52 39 -71 23 -30 27 -44 27 -106 l0 -72 -73 0 c-79 0
-113 -18 -105 -57 3 -17 20 -18 256 -21 l252 -2 0 28 c0 44 -16 52 -102 52
l-78 0 0 30 0 30 65 0 c36 0 82 7 102 15 25 11 40 12 47 5 7 -7 17 -3 33 12
l24 22 -87 87 -86 86 7 46 c6 36 12 47 28 49 29 4 45 33 31 55 -22 35 -74 23
-74 -17 0 -14 -10 -19 -47 -22 l-48 -5 -85 84 c-78 76 -87 82 -104 70z m229
-227 c115 -115 206 -213 202 -217 -8 -7 -427 405 -427 419 0 5 3 8 8 8 4 0
101 -94 217 -210z m141 -222 c-27 -15 -109 -28 -142 -22 -31 6 -34 9 -34 44 0
59 -52 92 -104 65 -40 -21 -43 -20 -70 24 -31 49 -47 132 -36 191 18 93 6 98
211 -106 131 -131 185 -191 175 -196z m-26 322 c0 -13 -7 -20 -20 -20 -13 0
-20 7 -20 20 0 13 7 20 20 20 13 0 20 -7 20 -20z m-92 -56 c-9 -9 -21 -13 -27
-10 -20 13 -11 26 16 26 25 0 26 -1 11 -16z m27 -34 c-5 -16 -10 -19 -18 -11
-7 7 -6 15 3 26 7 8 15 13 17 11 3 -2 2 -14 -2 -26z m-127 -166 c18 -12 22
-25 22 -67 l0 -52 -55 3 -55 4 0 44 c0 31 6 50 20 64 24 24 38 25 68 4z m22
-150 c0 -12 -10 -14 -52 -12 -74 4 -77 28 -4 28 44 0 56 -3 56 -16z m178 -56
c3 -17 -13 -18 -232 -18 -130 0 -236 2 -236 4 0 2 3 12 6 20 6 14 33 16 233
14 206 -3 226 -5 229 -20z"/>
<path d="M233 214 c-4 -11 1 -22 13 -31 16 -12 20 -11 31 3 9 13 10 21 2 31
-16 18 -38 16 -46 -3z m37 -15 c0 -5 -7 -9 -15 -9 -15 0 -20 12 -9 23 8 8 24
-1 24 -14z"/>
</g>
</svg>
