<?xml version="1.0" standalone="no"?>
<!DOCTYPE svg PUBLIC "-//W3C//DTD SVG 20010904//EN"
 "http://www.w3.org/TR/2001/REC-SVG-20010904/DTD/svg10.dtd">
<svg version="1.0" xmlns="http://www.w3.org/2000/svg"
 width="64.000000pt" height="64.000000pt" viewBox="0 0 64.000000 64.000000"
 preserveAspectRatio="xMidYMid meet">

<g transform="translate(0.000000,64.000000) scale(0.100000,-0.100000)"
fill="#000000" stroke="none">
<path d="M556 583 c-4 -12 -18 -24 -32 -27 -23 -6 -24 -8 -10 -27 7 -11 12
-29 9 -40 -3 -11 0 -19 7 -19 9 0 11 11 7 37 -8 47 15 69 49 46 19 -12 20 -17
10 -38 -6 -14 -16 -23 -23 -20 -7 2 -15 0 -18 -5 -4 -6 0 -10 9 -10 8 0 21 -3
30 -6 12 -5 16 0 16 17 0 12 7 30 16 40 14 16 14 18 -8 24 -13 4 -30 16 -39
28 l-17 20 -6 -20z"/>
<path d="M232 572 c-61 -33 -91 -117 -62 -173 9 -17 7 -19 -17 -19 -37 -1
-147 -60 -151 -82 -2 -9 6 -22 17 -28 17 -8 31 -5 71 15 30 15 50 21 50 14 0
-7 -29 -41 -65 -77 -68 -67 -75 -81 -50 -102 12 -10 21 -6 52 19 35 29 63 40
63 25 0 -4 -16 -24 -36 -46 -37 -41 -39 -55 -11 -72 14 -9 35 7 126 98 102
102 110 108 140 101 23 -5 40 -1 64 14 48 29 80 67 73 86 -10 28 -36 28 -74 1
-56 -39 -68 -32 -28 16 30 35 36 49 36 87 0 110 -103 173 -198 123z m78 -8 c0
-26 -27 -87 -42 -95 -25 -13 -24 -56 2 -64 12 -4 26 -2 33 3 13 11 87 -14 87
-29 0 -11 -49 -36 -75 -39 -47 -5 -69 2 -101 34 -29 29 -34 41 -34 79 0 67 44
115 108 116 12 1 22 -2 22 -5z m68 -27 c27 -29 40 -73 33 -109 l-6 -27 -41 18
c-57 26 -65 44 -47 98 17 49 30 53 61 20z m-80 -99 c-6 -18 -28 -21 -28 -4 0
9 7 16 16 16 9 0 14 -5 12 -12z m-76 -98 c18 -11 49 -20 68 -20 43 0 84 -20
88 -42 3 -14 -3 -16 -31 -11 -30 5 -37 0 -79 -46 -25 -28 -50 -51 -55 -51 -5
0 -27 18 -48 40 l-39 40 33 34 33 34 -28 4 c-18 2 -30 10 -32 21 -5 24 48 23
90 -3z m-108 1 c8 -12 -21 -34 -34 -26 -8 5 -8 11 1 21 13 16 25 18 33 5z
m366 -5 c0 -8 -5 -18 -11 -22 -14 -8 -33 11 -25 25 10 16 36 13 36 -3z m-420
-30 c0 -21 -20 -30 -33 -17 -9 9 -8 14 3 21 21 14 30 12 30 -4z m377 -3 c3 -7
-5 -17 -16 -23 -18 -9 -21 -8 -21 8 0 32 28 43 37 15z m-272 -113 l39 -40 -27
-27 c-18 -19 -30 -24 -37 -17 -7 7 -4 16 10 29 l20 18 -21 23 c-20 21 -23 22
-44 8 -30 -20 -44 0 -19 27 24 27 35 24 79 -21z m-101 -29 c7 -10 -22 -37 -30
-28 -9 8 3 37 15 37 5 0 12 -4 15 -9z m62 -90 c-8 -13 -36 -15 -36 -3 0 4 5
13 12 20 14 14 34 0 24 -17z"/>
<path d="M357 505 c20 -27 33 -32 33 -12 0 17 -20 37 -37 37 -11 0 -9 -6 4
-25z"/>
<path d="M375 440 c3 -5 8 -10 11 -10 2 0 4 5 4 10 0 6 -5 10 -11 10 -5 0 -7
-4 -4 -10z"/>
<path d="M190 285 l-24 -26 27 -27 27 -27 27 27 27 27 -24 26 c-13 14 -26 25
-30 25 -4 0 -17 -11 -30 -25z m50 -10 c13 -16 6 -35 -15 -35 -18 0 -28 17 -21
35 7 19 20 19 36 0z"/>
<path d="M480 200 c0 -5 5 -10 11 -10 5 0 7 5 4 10 -3 6 -8 10 -11 10 -2 0 -4
-4 -4 -10z"/>
<path d="M450 80 c0 -5 5 -10 10 -10 6 0 10 5 10 10 0 6 -4 10 -10 10 -5 0
-10 -4 -10 -10z"/>
</g>
</svg>
